<?xml version="1.0" encoding="UTF-8"?>
<svg id="_レイヤー_2" data-name="レイヤー 2" xmlns="http://www.w3.org/2000/svg" viewBox="0 0 196.45 92.65">
  <defs>
    <style>
      .cls-1 {
        fill: #c8d7e1;
        stroke-width: 0px;
      }
    </style>
  </defs>
  <g id="_固定" data-name="固定">
    <path class="cls-1" d="M55.88,30.62c-2.62-6.44-22.61-4.78-28.82-2.33-11.97,4.72-11.02,13.58-7.86,22.14-40.33,1.8-9.83,50.69,24.68,32.06,8.26,10.08,31.86,10.52,45.48,10.03,11.81-.43,26.73-3.65,31.35-12.9,3.78,6.99,10.72,9.67,24.09,9.07,12.57-.57,15.82-6.51,15.82-6.51,12.16,6.58,34.2-3.21,35.73-16.07,1.77-14.94-20.54-29.44-39.77-21.68,13.59-19.71-22.57-35.92-40.33-19.99C116.6,6.61,98.89-1.06,76.48.12c-11.71.61-21.7,6.02-24.76,14.91-1.89,5.47-2.99,19.87,7.82,20.68"/>
  </g>
</svg>